<svg xmlns="http://www.w3.org/2000/svg" width="24" height="24" viewBox="0 0 24 24">
    <g fill="#95A3B7" fill-rule="evenodd">
        <path d="M18.5 4c-.384 0-.769.146-1.061.438l-9.025 9.026a.5.5 0 0 0-.121.194l-1.023 3.07 3.07-1.023a.477.477 0 0 0 .194-.12l9.027-9.026c.283-.284.439-.66.439-1.06A1.497 1.497 0 0 0 18.5 4M6.479 18.02a.5.5 0 0 1-.474-.66l1.34-4.018c.072-.22.198-.423.363-.587l9.024-9.024a2.505 2.505 0 0 1 3.536 0c.472.471.732 1.1.732 1.768 0 .668-.26 1.296-.732 1.768l-9.026 9.024a1.514 1.514 0 0 1-.583.363l-4.022 1.34a.508.508 0 0 1-.158.026"/>
        <path d="M19 20.998H4c-.551 0-1-.448-1-1v-15c0-.55.449-1 1-1h9.5a.5.5 0 0 1 0 1H4v15h15v-9.5a.5.5 0 0 1 1 0v9.5a1 1 0 0 1-1 1"/>
    </g>
</svg>
