<svg xmlns="http://www.w3.org/2000/svg" width="18" height="19" viewBox="0 0 18 19">
    <g fill="#000000" fill-rule="evenodd">
        <path d="M11.854 6.854L17 1.707V4.5a.5.5 0 1 0 1 0v-4a.5.5 0 0 0-.5-.5h-4a.5.5 0 0 0 0 1h2.793l-5.146 5.146a.498.498 0 0 0 0 .708.5.5 0 0 0 .707 0M6.146 11.146L1 16.293V13.5a.5.5 0 1 0-1 0v4a.5.5 0 0 0 .5.5h4a.5.5 0 0 0 0-1H1.708l5.146-5.146a.498.498 0 0 0 0-.707.5.5 0 0 0-.708 0M15 16H7.5a.5.5 0 0 1 0-1H15V7.5a.5.5 0 0 1 1 0V15a1 1 0 0 1-1 1M2.5 11a.5.5 0 0 1-.5-.5V3c0-.551.449-1 1-1h7.5a.5.5 0 0 1 0 1H3v7.5a.5.5 0 0 1-.5.5"/>
    </g>
</svg>
